.
..............................Site Info...........................

 -   http://www.scenetime.com  *_*   

SceneTime is going to Close sign up on march/1, hurry up! get in before the doors are closed.

     We care to share . Join us on  http://www.scenetime.com 

    Be the first to get new release at  http://www.scenetime.com

        Seed back for speed


...................................NFO:.................................................++--------------------------------------------------------------------------------
--------------------------------------------------------------------------------
--------------------------------------------------------------------------------
--------------------------------------------------------------------------------
--------------------------------------------------------------------------------
--------------------------------------------------------------------------------
---------------+++++++++++++--------------------------+++++++++++---------------
--------------+++++++++++++++--------+--------------++++++++++++++--------------
-------------++----------++++-------+++------------+++---------+++--------------
------------++------------++---------+-----------++++---------------------------
------------++----------------------------------++++----------------------------
------------++-----------------------+---------++++-----------------------------
------------++++--------------------+++-------++++------------------------------
-------------+++++------------------+++-------+++-------------------------------
---------------++++++++-------------+++-------+++-------------------------------
---------------------+++++----------+++-------+++-------------------------------
------------------------+++---------+++-------+++-------------------------------
--------------------------++--------+++-------+++-------------------------------
---------------------------++-------+++-------+++-------------------------------
----------------------------++------+++-------+++-------------------------------
----------------------------++------+++-------++++------------------------------
----------------------------++------+++--------++++-----------------------------
----------------------------++------+++---------++++----------------------------
----------------------------++------+++----------++++---------------------------
---------------++----------+++------+++------------+++---------+++--------------
--------------++++--------+++-------+++-------------++++++++++++++--------------
---------------++++++++++++---------+++---------------+++++++++++---------------
----------------+++++++++-------------------------------------------------------
--------------------------------------------------------------------------------
--------------------------------------------------------------------------------
--------------------------------------------------------------------------------
--------------------------------------------------------------------------------
--------------------------------------------------------------------------------
--------------------------------------------------------------------------------
--------------------------------------------------------------------------------
--------------------------------------------------------------------------------
--------------------------------------------------------------------------------
--------------------------------------------------------------------------------
---------+-+--------+-+--------+-+--------+-+--------+-+--------+-+--------+-+---------
--------------------------------------------------------------------------------
---+++-+------+++-+------+++-+------+++++++---+++-+------+++-+---+++-+--++++---+++++++
---++++-------  -------++++------++++++-+---++++-------  ----   ----   ---++++++-+
--------------  ++++----------------------------------  ----   ----   ----------
--------------      ----------------------------------  ----   ----   ----------
---+++++++----      ---+++++++++++++-+------+++++++----  ----   ----   ++++++-+---
----      ----      ---++++++-++++++++------++++++-+----  ----   ----   +++++++---
----      ----      ----------------------------------  ----   ----   ----------
----      ----      ----------------------------------  ----   ----   ----------
++++      ++++      ++++++++++++++++++++++++++++++++++  ++++   ++++   ++++++++++


Woman.In.Black.2012.CAM.XviD-SiC
 
http://www.imdb.com/title/tt1596365/

Plot:
A young lawyer travels to a remote village where 
he discovers the vengeful ghost of a scorned woman 
is terrorizing the locals.


Video
ID                                       : 0
Format                                   : MPEG-4 Visual
Format profile                           : Advanced Simple@L5
Format settings, BVOP                    : 2
Format settings, QPel                    : No
Format settings, GMC                     : No warppoints
Format settings, Matrix                  : Default (H.263)
Muxing mode                              : Packed bitstream
Codec ID                                 : XVID
Codec ID/Hint                            : XviD
Duration                                 : 1h 29mn
Bit rate                                 : 952 Kbps
Width                                    : 720 pixels
Height                                   : 288 pixels
Display aspect ratio                     : 2.500
Frame rate                               : 23.976 fps
Color space                              : YUV
Chroma subsampling                       : 4:2:0
Bit depth                                : 8 bits
Scan type                                : Progressive
Compression mode                         : Lossy
Bits/(Pixel*Frame)                       : 0.191
Stream size                              : 610 MiB (83%)
Writing library                          : XviD 64

Audio
ID                                       : 1
Format                                   : AC-3
Format/Info                              : Audio Coding 3
Mode extension                           : CM (complete main)
Codec ID                                 : 2000
Duration                                 : 1h 29mn
Bit rate mode                            : Constant
Bit rate                                 : 192 Kbps
Channel(s)                               : 2 channels
Channel positions                        : Front: L R
Sampling rate                            : 48.0 KHz
Bit depth                                : 16 bits
Compression mode                         : Lossy
Stream size                              : 123 MiB (17%)
Alignment                                : Aligned on interleaves
Interleave, duration                     : 42 ms (1.00 video frame)

Screenshots:
[IMG]http://i.imgur.com/WzSbE.png[/IMG]
[IMG]http://i.imgur.com/lRvJT.png[/IMG]
[IMG]http://i.imgur.com/3k7Np.png[/IMG]
[IMG]http://i.imgur.com/gVH9q.png[/IMG]
 
http://screenshotcomparison.com/comparison/108275

Notes:
Cleaned video up alot as you will see
from screen shot comparison so check
sample :P

Sources - 
V: INFERNO
A: INFERNO

Respects to T00NG0D, ELEKTRI4KA, PA, YeFsTe, MrRep and everyone in the struggle...RiP MU & BTJ